<svg width="24" height="24" viewBox="0 0 24 24" fill="none" xmlns="http://www.w3.org/2000/svg">
<path fill-rule="evenodd" clip-rule="evenodd" d="M12 3.75C7.44621 3.75 3.75 7.44621 3.75 12C3.75 16.5538 7.44621 20.25 12 20.25C16.5538 20.25 20.25 16.5538 20.25 12C20.25 7.44621 16.5538 3.75 12 3.75ZM2.25 12C2.25 6.61779 6.61779 2.25 12 2.25C17.3822 2.25 21.75 6.61779 21.75 12C21.75 17.3822 17.3822 21.75 12 21.75C6.61779 21.75 2.25 17.3822 2.25 12Z" fill="#333333"/>
<path fill-rule="evenodd" clip-rule="evenodd" d="M11.63 6.76001C12.0442 6.76001 12.38 7.0958 12.38 7.51001V11.61C12.38 11.7636 12.4386 11.9861 12.569 12.2147C12.6994 12.4434 12.861 12.607 12.9924 12.6848L12.9943 12.686L12.9943 12.686L16.0943 14.536C16.45 14.7482 16.5663 15.2087 16.354 15.5644C16.1418 15.92 15.6814 16.0363 15.3257 15.824L12.2277 13.9752C12.2273 13.975 12.227 13.9748 12.2266 13.9746C11.8184 13.7324 11.4904 13.3513 11.266 12.9578C11.0414 12.5639 10.88 12.0865 10.88 11.61V7.51001C10.88 7.0958 11.2158 6.76001 11.63 6.76001Z" fill="#333333"/>
</svg>
