<svg width="760" height="16" viewBox="0 0 760 16" fill="none" xmlns="http://www.w3.org/2000/svg">
<g clip-path="url(#clip0_6313_1423)">
<path d="M6.39146 4.58653C6.15571 4.12085 5.83265 3.72546 5.46593 3.37401C4.74123 2.55687 3.8157 1.92425 2.75919 1.64309C2.40994 1.54644 1.83366 1.53765 1.55426 1.83639C0.646191 2.7941 0.0699173 4.05056 6.59972e-05 5.3773C-0.0348597 6.22079 0.0437231 6.98521 0.288203 7.79356C0.646191 9.00608 1.44075 10.3504 2.76793 10.5964C3.37039 10.7106 3.99905 10.7282 4.57533 10.491C5.00317 10.3152 5.43101 10.0429 5.74534 9.69141C5.85885 9.5684 5.95489 9.42782 6.05094 9.28724C6.28669 9.11151 6.47878 8.91821 6.67087 8.62826C6.88915 8.29438 6.95901 7.91656 6.97647 7.53875C7.00266 7.04671 6.95027 6.55468 6.83677 6.07142C6.76691 5.56181 6.61848 5.06099 6.374 4.57774L6.39146 4.58653Z" fill="#562522"/>
<path d="M28.6567 4.894C28.6567 4.11201 28.3249 3.25973 27.7574 2.72376C27.3994 2.3811 27.0938 2.15265 26.6572 1.94178C26.2032 1.72212 25.8016 1.61668 25.3039 1.5376C24.4569 1.39702 23.575 1.5376 22.763 1.79241C22.3614 1.91542 21.9597 2.1175 21.6017 2.33716C21.2525 2.55682 20.8945 2.8292 20.6238 3.14551C19.9428 3.9275 19.5324 4.81492 19.4975 5.8605C19.4713 6.77429 19.8205 7.64414 20.3095 8.39098C20.7286 9.0236 21.3485 9.56836 22.0209 9.90224C22.6059 10.1922 23.121 10.3679 23.7759 10.4646C24.7451 10.6139 25.7841 10.3679 26.4826 9.64743C26.989 9.12025 27.3645 8.40855 27.4343 7.6705C28.159 6.91487 28.648 5.95715 28.648 4.88521L28.6567 4.894Z" fill="#562522"/>
<path d="M59.6704 6.51071C59.6354 6.29984 59.583 6.08897 59.5045 5.89567C59.3735 5.57057 59.1639 5.28062 58.9282 5.02581C58.9456 4.85009 58.9369 4.67436 58.902 4.49863C58.8583 4.27897 58.6401 4.11203 58.4829 3.97145C58.2209 3.743 57.9415 3.5497 57.6621 3.34762C57.732 3.30368 57.8018 3.25975 57.8804 3.22461C57.9939 3.17189 57.3827 2.62713 57.4613 2.69742C57.0771 2.35475 56.6406 2.04723 56.2214 1.77485C55.7936 1.49369 55.3483 1.21253 54.8855 0.992866C54.7196 0.913788 54.4315 0.729274 54.2394 0.808352C53.3226 1.22131 52.7376 2.14388 52.5979 3.12796C52.3884 3.41791 52.2574 3.76058 52.1963 4.12082C52.0653 4.15596 51.9256 4.1999 51.8034 4.25261C51.6113 4.3229 51.4803 4.44591 51.393 4.61285C51.2707 4.75344 51.2271 4.92038 51.2533 5.11368L51.0088 8.41736C51.0263 8.62823 51.0961 8.80396 51.2271 8.9709C51.3406 9.18177 51.489 9.3575 51.6898 9.49808C52.1002 9.84075 52.7027 10.1219 53.2266 10.2098C53.6806 10.2801 54.2394 10.3416 54.6585 10.1043L54.676 10.0868C54.8419 10.0868 55.0078 10.0868 55.1649 10.0516C55.7063 10.0077 56.3524 9.72653 56.6842 9.27842C57.0073 8.8391 57.1382 8.40857 57.1644 7.88139C57.7145 7.99561 58.2908 7.94289 58.8059 7.67052C59.1115 7.51236 59.3735 7.2927 59.5656 7.01154C59.6092 6.95003 59.6704 6.87095 59.6878 6.79188C59.714 6.7128 59.6878 6.60736 59.6704 6.5195V6.51071Z" fill="#562522"/>
<path d="M91.5661 6.66003C91.147 5.20149 89.9159 4.08562 88.5276 3.54086C87.8989 3.29485 87.2004 3.13669 86.4931 3.11912C86.3709 3.04883 86.2399 2.98732 86.1177 2.94339C85.6811 2.78524 85.1398 2.62708 84.6857 2.77645C84.3452 2.89067 83.961 3.1279 83.961 3.54086C83.961 3.61994 83.961 3.69902 83.9698 3.7781C83.7165 3.94504 83.4895 4.13834 83.2538 4.38436C82.9045 4.76217 82.7037 5.25421 82.6164 5.76382C82.5465 6.14163 82.7736 6.58974 82.9918 6.89726C83.018 7.0642 83.0442 7.22236 83.0966 7.37173C83.3411 8.14493 83.7777 8.79512 84.3889 9.3223C85.5501 10.3327 87.0432 10.7281 88.545 10.5348C89.4967 10.4118 90.3437 9.94614 90.9898 9.25201C91.6272 8.57546 91.8106 7.55624 91.5574 6.66882L91.5661 6.66003Z" fill="#562522"/>
<path d="M114.11 3.24218L114.075 3.25976H114.093L114.137 3.2334H114.11V3.24218Z" fill="#562522"/>
<path d="M118.581 3.99786C118.162 3.16316 117.359 2.68869 116.486 2.47782C115.796 2.31088 115.071 2.31088 114.364 2.34602C113.246 2.40753 112.137 2.60962 111.081 2.98743C110.077 3.34767 109.212 3.94515 108.793 4.95558C108.383 5.94844 108.505 7.06431 108.985 8.01324C109.544 9.10275 110.47 9.85838 111.622 10.2274C111.998 10.3416 112.574 10.2889 112.941 10.2538C113.491 10.2098 114.067 10.1132 114.6 9.95503C114.879 9.86717 115.368 9.7793 115.551 9.5245C115.7 9.31362 115.446 9.24333 115.281 9.19062C115.281 9.19062 115.219 9.16426 115.185 9.15547C115.097 9.12032 115.019 9.07639 114.931 9.04125C114.783 8.97096 114.652 8.88309 114.512 8.78644C114.373 8.68979 114.233 8.57557 114.111 8.46135C114.407 8.41741 114.704 8.35591 114.992 8.2944C116.215 8.03081 117.525 7.53878 118.267 6.46684C118.764 5.74635 118.974 4.82378 118.564 4.01544L118.581 3.99786Z" fill="#562522"/>
<path d="M153.821 3.25966C153.262 2.11743 152.232 1.3003 151.062 0.869763C150.241 0.56224 149.263 0.474376 148.399 0.65889C147.552 0.843404 146.696 1.1685 146.094 1.83626C145.954 1.99442 145.814 2.16136 145.692 2.3283C145.675 2.3283 145.666 2.3283 145.648 2.3283C145.386 2.30194 145.046 2.47767 144.871 2.67097C144.347 3.26845 144.321 4.11194 144.531 4.84999C144.583 5.04329 144.653 5.23659 144.732 5.42111C144.732 6.23824 144.889 7.02902 145.133 7.82858C145.273 8.28547 145.84 8.80387 146.233 9.01474C146.679 9.26076 147.29 9.50678 147.805 9.38377C148.198 9.2959 148.504 9.19925 148.827 9.04988C149.071 9.12896 149.316 9.18168 149.569 9.19047C150.04 9.20804 150.59 9.04988 150.905 8.67207C150.983 8.57542 151.053 8.46998 151.114 8.37333C151.175 8.27668 151.193 8.17125 151.202 8.05702C151.551 8.02188 151.891 7.93401 152.197 7.77586C152.922 7.39805 153.55 6.81814 153.856 6.03616C154.039 5.56169 154.135 5.17509 154.135 4.66548C154.135 4.18223 154.048 3.71655 153.83 3.26845L153.821 3.25966Z" fill="#562522"/>
<path d="M179.047 3.32135C178.654 2.73266 178.139 2.31091 177.563 1.9331C177.126 1.65193 176.611 1.44106 176.096 1.34441C175.432 1.2214 174.769 1.15111 174.105 1.34441C173.581 1.49378 173.258 1.63436 172.813 1.95067C172.551 2.13519 172.332 2.38999 172.14 2.6448C171.922 2.93475 171.782 3.29499 171.704 3.66402C171.11 4.48994 170.857 5.51794 171.162 6.54595C171.407 7.38066 172.044 7.95177 172.76 8.3823C173.389 8.7689 174.087 8.91827 174.803 9.01492C174.987 9.04128 175.161 9.04128 175.345 9.0325C175.694 9.01492 176.052 8.99735 176.393 8.91827C177.082 8.75133 177.632 8.49653 178.217 8.09235C179.134 7.45095 179.737 6.27357 179.676 5.14013C179.641 4.48994 179.405 3.8661 179.047 3.33013V3.32135Z" fill="#562522"/>
<path d="M221.08 5.80776C220.757 4.85005 220.067 4.01534 219.29 3.39151C219.22 3.33001 219.133 3.28607 219.054 3.23336C218.914 2.82918 218.661 2.42501 218.382 2.14384C218.006 1.77482 217.543 1.40579 217.02 1.30914C216.644 1.23885 216.12 1.2037 215.849 1.53758C215.352 2.15263 214.863 2.75889 214.365 3.37394L214.348 3.4003C213.78 3.92748 213.431 4.65675 213.344 5.42995C213.274 6.02742 213.597 6.61611 213.946 7.06422C214.348 7.57383 214.854 7.96921 215.492 8.13616C215.631 8.1713 215.771 8.19766 215.902 8.22402C216.199 8.46125 216.504 8.68091 216.845 8.87421C217.552 9.28717 218.355 9.48047 219.159 9.55076C219.49 9.57712 219.805 9.53319 220.128 9.47169C220.241 9.45411 220.39 9.43654 220.503 9.39261C220.765 9.29596 220.957 9.05873 221.08 8.82149C221.141 8.70727 221.176 8.58426 221.211 8.46125C221.333 8.01315 221.385 7.64412 221.359 7.18723C221.333 6.70398 221.237 6.2998 221.08 5.83412V5.80776Z" fill="#562522"/>
<path d="M247.676 6.56348C247.632 6.47562 247.58 6.39654 247.536 6.31746C247.623 6.15931 247.719 5.99237 247.807 5.83421C248.182 5.17523 247.885 4.2966 247.501 3.72548C247.082 3.09286 246.366 2.49539 245.563 2.4866C245.17 2.4866 244.777 2.55689 244.401 2.69747C244.367 2.6799 244.332 2.64476 244.288 2.62718C243.895 2.43388 243.389 2.24937 242.952 2.4251C242.559 2.58325 242.245 2.89956 242.184 3.33888C241.922 5.41247 242.105 7.5212 242.743 9.51571C242.952 10.1659 243.362 10.7019 243.913 11.0797C244.34 11.3784 244.943 11.642 245.475 11.4399C246.331 11.1148 247.047 10.5964 247.58 9.84959C248.261 8.90066 248.2 7.56513 247.685 6.5547L247.676 6.56348Z" fill="#562522"/>
<path d="M283.981 4.69189C283.946 4.63038 283.911 4.56888 283.867 4.50737C283.684 4.24378 283.492 3.98019 283.256 3.76053C282.793 3.33878 282.269 2.96975 281.667 2.77645C280.645 2.45136 279.606 2.46893 278.593 2.82039C278.096 2.99611 277.659 3.25971 277.257 3.57602C276.961 3.61116 276.672 3.69902 276.445 3.90111C276.087 4.21742 275.817 4.6831 275.878 5.17514C275.878 5.23664 275.895 5.29815 275.904 5.35965C275.895 5.38601 275.878 5.40358 275.869 5.42994C275.825 5.55295 275.791 5.67596 275.764 5.79897C275.721 6.08013 275.677 6.37887 275.703 6.66882C275.729 6.96756 275.773 7.27508 275.869 7.55625C275.948 7.78469 276.052 8.02192 276.166 8.2328C276.55 8.93571 277.31 9.38381 278.087 9.50682C278.829 9.62105 279.597 9.53318 280.296 9.28716C280.584 9.18173 280.863 9.04993 281.117 8.88299C282.549 8.68969 284.016 7.73197 284.216 6.21193C284.295 5.63203 284.269 5.23664 283.972 4.6831L283.981 4.69189Z" fill="#562522"/>
<path d="M319.596 4.19121C319.413 3.91004 319.142 3.67281 318.863 3.49708C318.863 3.47073 318.854 3.44437 318.845 3.41801C318.67 2.89961 318.12 2.61845 317.64 2.4515C316.985 2.23185 316.365 2.24942 315.693 2.39C315.492 2.43393 315.283 2.50422 315.082 2.5833C314.68 2.47786 314.261 2.42515 313.851 2.48665C313.405 2.54815 312.812 2.66238 312.506 3.02262C312.262 3.30378 312.035 3.60252 311.895 3.94519C311.764 4.27907 311.659 4.6481 311.633 4.99956C311.607 5.3598 311.659 5.72004 311.72 6.07149C311.764 6.3263 311.842 6.57232 311.956 6.80076C312.375 7.64426 312.995 8.23294 313.824 8.65469C314.357 8.92707 314.977 9.05886 315.571 9.1028C316.147 9.14673 316.793 9.08522 317.343 8.9095C317.893 8.73377 318.321 8.49653 318.784 8.15387C319.098 7.91663 319.334 7.6179 319.561 7.30159C319.919 6.80955 320.129 6.133 320.067 5.52674C320.015 4.99077 319.875 4.63053 319.578 4.18242L319.596 4.19121Z" fill="#562522"/>
<path d="M346.785 5.28943C346.733 4.99069 346.628 4.70953 346.523 4.42836C346.358 3.97147 346.087 3.58487 345.79 3.20706C345.493 2.83803 345.118 2.51293 344.716 2.2757C344.131 1.93303 343.485 1.65187 342.804 1.57279C342.332 1.52007 341.896 1.52007 341.442 1.67823C341.119 1.79245 340.665 2.02089 340.525 2.36356L340.394 2.68866C340.062 2.83803 339.748 3.01376 339.451 3.2422C339.145 3.47065 338.91 3.7606 338.674 4.05055C338.517 4.24385 338.386 4.44594 338.29 4.6656C338.002 5.32457 337.818 6.05384 338.036 6.75675C338.194 7.28394 338.403 7.67932 338.779 8.09228C339.198 8.55796 339.704 8.86549 340.254 9.12908C341.25 9.61233 342.402 9.66505 343.476 9.49811C344.288 9.36631 345.153 8.97092 345.746 8.39981C346.349 7.81991 346.803 7.01156 346.829 6.15928C346.829 5.86933 346.846 5.56181 346.794 5.27186L346.785 5.28943Z" fill="#562522"/>
<path d="M374.49 4.68304C374.089 4.34916 373.644 4.06799 373.172 3.85712C373.128 3.64625 373.058 3.43537 372.945 3.26843C372.316 2.32829 371.138 1.89776 370.064 2.16135C367.776 2.72368 366.344 5.26294 366.947 7.52983C367.13 8.20638 367.523 8.839 368.012 9.33982C368.483 9.82307 369.147 10.2448 369.793 10.4469C370.474 10.6578 371.164 10.7896 371.88 10.7193C372.578 10.649 373.146 10.4733 373.783 10.1745C374.228 9.96365 374.656 9.62099 374.971 9.24317C375.399 8.73356 375.591 8.21516 375.695 7.57376C375.87 6.50182 375.311 5.35959 374.508 4.68304H374.49Z" fill="#562522"/>
<path d="M408.01 4.59527C407.835 3.65513 407.154 2.75013 406.36 2.24052C405.775 1.8627 405.216 1.64304 404.535 1.51125C403.862 1.37945 403.19 1.4761 402.544 1.64304C401.846 1.81877 401.217 2.23173 400.684 2.71498C400.23 3.11916 399.898 3.63755 399.654 4.19109C399.217 5.18396 399.06 6.44041 399.584 7.44206C399.628 7.58264 399.689 7.69686 399.767 7.81108C399.864 8.29433 400.056 8.7688 400.352 9.12904C401.217 10.1658 402.57 10.3943 403.819 9.99889C404.849 9.6738 405.862 9.03239 406.587 8.23283C406.945 7.83744 407.294 7.39812 407.538 6.92366C407.696 6.62492 407.827 6.3174 407.94 6.00988C407.975 5.92201 408.001 5.83415 408.027 5.7375C408.158 5.28061 408.097 5.05216 408.01 4.60405V4.59527Z" fill="#562522"/>
<path d="M438.675 3.30368C438.605 2.98737 438.536 2.67106 438.431 2.37232C438.151 1.52883 437.628 0.588688 436.772 0.228446C436.44 0.0878638 436.056 0 435.698 0C435.296 0 434.938 0.0966502 434.598 0.237232C434.493 0.228446 434.379 0.237232 434.266 0.281164C433.698 0.544756 433.323 1.01922 433.087 1.57276C432.808 2.08237 432.659 2.68863 432.686 3.25975C432.703 3.79572 432.843 4.31411 433.079 4.79736C433.096 4.83251 433.122 4.87644 433.14 4.91159C433.253 5.27183 433.384 5.62328 433.567 5.96595C433.995 6.76551 434.545 7.58265 435.322 8.07468C435.724 8.32949 436.03 8.47007 436.492 8.57551C436.597 8.59308 436.693 8.61065 436.798 8.61065C436.859 8.61065 436.912 8.61065 436.973 8.61065C437.235 8.59308 437.313 8.52279 437.488 8.35585C437.523 8.3207 437.566 8.27677 437.601 8.23284C438.108 7.64415 438.457 6.89731 438.64 6.14168C438.867 5.2279 438.876 4.21746 438.675 3.30368Z" fill="#562522"/>
<path d="M472.518 5.97474C472.203 5.25425 471.645 4.60406 470.981 4.18232C469.776 3.42669 468.266 3.52334 466.93 3.75178C466.284 3.86601 465.637 4.02416 465.026 4.27018C464.86 4.34047 464.677 4.41955 464.528 4.50741C464.319 4.63042 464.24 4.74464 464.136 4.94673C463.9 5.40362 463.734 5.91323 463.682 6.43163C463.585 7.3542 463.882 8.36463 464.659 8.92696C464.852 9.06754 465.07 9.16419 465.306 9.23448C465.323 9.23448 465.34 9.25206 465.358 9.25206C465.393 9.26084 465.428 9.26963 465.471 9.27842H465.498C465.733 9.33992 465.969 9.37507 466.205 9.40143C466.851 9.46293 467.515 9.41021 468.169 9.30478H468.283C468.615 9.30478 468.947 9.30478 469.278 9.30478C470.143 9.2872 471.068 9.11147 471.872 8.77759C472.168 8.65458 472.369 8.53157 472.509 8.25041C472.858 7.51235 472.867 6.71279 472.544 5.96595L472.518 5.97474Z" fill="#562522"/>
<path d="M507.985 3.31237C507.295 2.82912 506.448 2.62703 505.619 2.64461C503.995 2.67975 502.371 3.20693 500.912 3.90106C499.236 4.70062 497.647 5.99222 497.306 7.91643C497.236 8.29425 497.236 8.68964 497.306 9.06745C497.359 9.36619 497.752 9.50677 498.066 9.56827C498.136 10.113 498.302 10.6578 498.546 11.141C498.642 11.3343 498.703 11.4134 498.93 11.4398C499.149 11.4661 499.367 11.4837 499.585 11.4749C500.284 11.4661 500.973 11.3607 501.655 11.2201C502.956 10.9477 504.37 10.5963 505.505 9.8758C506.143 9.47162 506.649 8.97959 506.989 8.30304C507.435 7.41561 507.347 6.35246 506.876 5.50018C506.92 5.37717 506.972 5.26295 506.989 5.12236L506.893 5.06086C506.745 4.99057 506.597 4.94664 506.448 4.90271C506.439 4.89392 506.431 4.88513 506.422 4.86756C506.317 4.76212 506.204 4.66547 506.081 4.57761C506.3 4.50732 506.527 4.43703 506.736 4.34916C507.129 4.18222 507.574 4.00649 507.898 3.71654C508.046 3.58475 508.203 3.44417 507.994 3.30358L507.985 3.31237Z" fill="#562522"/>
<path d="M536.947 5.43009C536.371 5.20164 535.725 5.14893 535.114 5.14893C533.952 5.14893 532.791 5.33344 531.7 5.71125C530.809 6.01878 529.892 6.58111 529.421 7.43338C529.028 8.12751 528.897 8.97979 529.281 9.70906C529.665 10.4383 530.329 10.8952 531.088 11.1588C531.621 11.3433 532.206 11.3873 532.756 11.396C533.856 11.396 535.026 11.2467 536.057 10.8513C536.257 10.7722 536.45 10.6843 536.624 10.5789C537.017 10.535 537.419 10.4823 537.803 10.412C538.178 10.3417 538.563 10.2362 538.903 10.0781C539.078 9.99901 539.287 9.90236 539.331 9.69148C539.663 7.89906 538.606 6.09785 536.947 5.44766V5.43009Z" fill="#562522"/>
<path d="M563.709 7.2661H563.718C563.718 7.2661 563.7 7.24853 563.7 7.23096C563.7 7.23974 563.7 7.24853 563.709 7.2661Z" fill="#562522"/>
<path d="M566.914 8.93563C566.198 7.85491 565.08 7.01142 563.98 6.37001C563.43 6.04491 562.836 5.77254 562.208 5.65831C561.256 5.49137 560.295 5.61438 559.448 6.12399C558.698 6.58088 558.27 7.32773 558.278 8.21515C558.278 8.67204 558.453 9.12015 558.698 9.49796C558.837 9.70884 558.994 9.90213 559.152 10.0954C559.152 10.2097 559.134 10.3327 559.134 10.4469C559.143 10.6929 559.152 10.9038 559.274 11.1234C559.448 11.431 559.728 11.677 559.99 11.9142C560.339 12.2393 560.715 12.5293 561.107 12.7929C561.649 13.1531 562.234 13.4694 562.862 13.6715C563.386 13.8384 563.971 13.8736 564.513 13.7594C565.534 13.5309 566.495 12.8719 567.019 11.9581C567.569 11.0004 567.525 9.8582 566.914 8.93563Z" fill="#562522"/>
<path d="M598.399 4.1471C597.604 3.09274 596.294 2.24046 594.967 2.10866C594.408 2.05594 593.832 2.09988 593.291 2.23167C592.889 2.10866 592.418 2.04716 592.042 2.25803C590.96 2.8555 590.06 3.72536 589.519 4.85001C588.995 5.93952 588.733 7.16962 588.829 8.38214C588.882 9.00597 589.004 9.63859 589.231 10.2185C589.371 10.5787 589.528 10.9478 589.728 11.2816C589.964 11.6682 590.226 12.0285 590.593 12.2921C590.829 12.4678 591.117 12.5996 591.379 12.7314C592.488 13.2674 593.867 13.4695 595.081 13.2762C596.303 13.0829 597.561 12.5557 598.399 11.6243C599.324 10.6051 599.752 9.40136 599.778 8.03068C599.805 6.61608 599.237 5.26297 598.399 4.1471ZM593.413 9.29592C593.57 9.09384 593.666 8.84782 593.719 8.59301C593.736 8.61937 593.745 8.65452 593.754 8.68088C593.85 8.87418 593.963 9.04112 594.094 9.19927C594.094 9.19927 594.077 9.19927 594.068 9.20806C593.85 9.25199 593.623 9.27835 593.404 9.28714L593.413 9.29592Z" fill="#562522"/>
<path d="M640.938 6.3965C640.563 5.8166 640.135 5.41243 639.532 5.06976C638.074 4.23505 636.11 4.66559 634.913 5.76388C634.39 6.24713 633.918 6.85339 633.682 7.54752C633.665 7.59145 633.656 7.6266 633.647 7.67053C632.958 8.76883 632.652 10.1044 633.237 11.3257C633.35 11.5629 633.534 11.7738 633.691 11.9759C633.988 12.3537 634.398 12.503 634.852 12.6348C635.333 12.7754 635.856 12.8193 636.363 12.7842C637.594 12.6963 638.799 12.1955 639.733 11.3784C640.266 10.9127 640.632 10.4031 640.973 9.79683C641.217 9.35751 641.401 8.83033 641.41 8.32072C641.41 7.64417 641.314 6.9764 640.938 6.3965Z" fill="#562522"/>
<path d="M676.545 10.772C676.31 10.0252 675.663 9.41892 675.035 8.99718C674.799 8.83902 674.546 8.69844 674.284 8.593C674.179 8.54907 674.066 8.51393 673.961 8.46999C673.786 8.24155 673.594 8.03067 673.393 7.86373C673 7.52985 672.538 7.18718 672.022 7.08175C671.673 7.01146 671.306 6.96752 671.027 7.2399L669.071 9.13776C668.984 9.22562 668.888 9.3047 668.809 9.39256C668.652 9.56829 668.608 9.73523 668.608 9.96368C668.608 10.1746 668.608 10.3679 668.652 10.5699C668.774 11.1323 668.984 11.6507 669.289 12.1339C669.63 12.6699 670.075 13.1883 670.564 13.5925C670.809 13.7945 671.062 13.9878 671.333 14.1636C671.42 14.2339 671.507 14.3042 671.603 14.3569L672.066 14.6205C672.311 14.7435 672.572 14.8138 672.843 14.8313C673.559 15.0246 674.31 15.0598 674.991 14.7259C675.716 14.3744 676.179 13.8297 676.502 13.1092C676.851 12.3536 676.79 11.5277 676.554 10.7545L676.545 10.772Z" fill="#562522"/>
<path d="M706.66 9.52447C706.424 8.83035 705.795 8.33831 705.149 8.04836C704.765 7.87263 704.363 7.76719 703.953 7.68812C703.429 7.5036 702.879 7.41574 702.32 7.37181C701.386 7.29273 700.399 7.38938 699.596 7.90778C699.168 8.18894 698.863 8.64583 698.644 9.10272C698.234 9.99893 698.208 11.1412 698.688 12.0198C699.072 12.7139 699.788 13.1093 700.504 13.3817C701.779 13.8737 703.324 14.0231 704.643 13.6541C705.725 13.3553 706.476 12.3537 706.729 11.2905C706.878 10.7018 706.843 10.1044 706.642 9.52447H706.66Z" fill="#562522"/>
<path d="M733.971 11.475C733.893 11.2729 733.779 11.0883 733.648 10.9126C733.639 10.5436 733.517 10.1658 733.247 9.91097C732.81 9.49801 732.382 9.13777 731.815 8.9269C731.256 8.71603 730.671 8.57544 730.068 8.6018C729.448 8.62816 728.977 8.75117 728.401 8.97962C728.034 9.12899 727.702 9.35743 727.388 9.58588C727.178 9.73525 726.995 9.91097 726.829 10.1043C726.567 10.403 726.314 10.7017 726.13 11.0532C725.79 11.721 725.58 12.4942 725.711 13.241C725.816 13.8033 726.026 14.2163 726.349 14.6732C726.419 14.7698 726.497 14.8665 726.584 14.9544C726.881 15.2531 727.196 15.4903 727.597 15.6309C727.842 15.7188 728.095 15.8066 728.357 15.8681C729.475 16.1405 730.706 15.9648 731.736 15.4728C732.548 15.0774 733.351 14.392 733.753 13.5661C733.875 13.3025 733.989 13.0301 734.067 12.749C734.085 12.6787 734.102 12.5996 734.12 12.5205C734.19 12.1076 734.12 11.8528 733.971 11.4662V11.475Z" fill="#562522"/>
<path d="M759.066 8.95339C759.066 8.95339 759.039 8.92703 759.022 8.90946C758.926 8.76888 758.812 8.62829 758.673 8.50528C758.018 7.76723 757.049 7.36305 756.088 7.2664C755.704 7.23126 755.302 7.29276 754.927 7.38063C754.551 7.46849 754.193 7.653 753.853 7.82873C753.259 8.13626 752.744 8.61951 752.334 9.14669C751.836 9.78809 751.574 10.5437 751.469 11.3433C751.347 12.3274 751.705 13.3993 752.273 14.1901C752.849 14.9984 753.731 15.7101 754.717 15.9122C755.486 16.0704 756.289 16.0528 757.014 15.7365C757.38 15.5783 757.747 15.4026 758.07 15.1566C758.393 14.9193 758.681 14.6206 758.952 14.3219C759.528 13.6717 759.843 12.8458 759.965 11.9847C760.105 10.9567 759.72 9.75295 759.057 8.96217L759.066 8.95339Z" fill="#562522"/>
</g>
<defs>
<clipPath id="clip0_6313_1423">
<rect width="760" height="16" fill="white"/>
</clipPath>
</defs>
</svg>
