<svg width="634" height="281" viewBox="0 0 634 281" fill="none" xmlns="http://www.w3.org/2000/svg">
<g clip-path="url(#clip0_6304_666)">
<path d="M27.6775 142.113C27.6775 142.113 43.3556 112.856 70.0315 134.871C75.2126 117.568 88.4061 112.392 103.911 116.313C91.6804 105.923 72.9976 108.298 65.6401 124.964C51.1561 115.946 30.971 121.971 27.6775 142.113Z" fill="#A2A83E"/>
<path d="M205.896 207.231C202.602 215.399 198.056 232.702 179.066 251.28C159.227 270.688 127.755 286.388 94.2035 279.281C123.248 231.37 171.708 211.016 205.896 207.25V207.231Z" fill="#A2A83E"/>
<path d="M207.456 200.935C207.456 200.935 158.977 182.068 105.009 201.881C60.9212 218.064 37.2307 250.952 37.2307 250.952C37.2307 250.952 59.9774 273.449 85.5555 275.496C104.219 246.24 138.118 206.922 207.436 200.935H207.456Z" fill="#A2A83E"/>
<path d="M208.245 195.895C208.245 195.895 158.206 158.141 93.8761 170.578C40.8902 180.813 11.2097 214.936 11.2097 214.936C11.2097 214.936 18.2783 230.501 29.411 242.454C49.6538 219.648 112.867 166.484 208.245 195.895Z" fill="#A2A83E"/>
<path d="M92.2582 32.4233C99.3654 25.703 105.606 24.3319 105.741 24.5636C94.6465 34.2193 90.3129 46.1151 90.5248 57.2385C94.5695 50.4409 100.039 47.351 106.338 45.3813C112.174 43.5467 117.74 41.1135 121.958 36.5946C129.816 28.1555 133.168 14.3286 127.12 0.0188293C124.289 4.65356 120.225 8.88276 114.889 12.0498C109.073 15.4873 103.314 16.1052 97.9016 20.0641C90.5826 25.4326 85.6711 35.2621 85.7674 44.3964C86.0178 40.5921 90.0625 34.509 92.2582 32.4426V32.4233ZM185.961 98.8545C178.565 90.2609 176.234 80.6053 167.74 71.4324C151.735 54.1487 128.738 48.2394 105.625 52.7582C104.662 52.9513 141.392 57.3157 157.86 83.2702C156.377 81.5515 129.739 60.309 86.48 65.5037C2.11879 75.6229 -1.75259 155.63 0.385334 174.517C1.17502 138.501 18.8755 114.864 25.6359 107.197C41.1599 89.5851 52.8318 83.1544 67.701 77.1678C76.4646 73.6338 86.6534 71.1234 94.4539 71.1234C103.66 71.1234 108.745 73.4794 113.329 85.491C116.199 93.0418 125.329 104.069 134.246 111.349C152.197 126.006 173.73 129.212 194.436 125.118C199.694 124.075 209.632 121.796 214.832 117.876C202.275 113.106 194.744 109.07 185.961 98.8352V98.8545Z" fill="#A2A83E"/>
<path d="M174.019 154.298L155.452 137.072H120.398L101.253 154.182H107.474V177.472L111.769 175.135V154.066L121.958 145.415L131.53 154.221L131.376 171.678L163.984 177.066L164.1 154.375L174.019 154.298Z" fill="#A2A83E"/>
<path d="M116.507 154.105H126.157V164.089L116.507 164.031V154.105Z" fill="#A2A83E"/>
<path d="M305.107 145.704C307.187 145.704 309.286 145.704 311.386 145.724C313.485 145.743 315.681 145.762 317.992 145.801C318.878 145.878 319.725 145.955 320.534 146.052C321.343 146.149 321.94 146.303 322.306 146.515C322.884 146.631 323.269 146.882 323.462 147.288C323.674 147.578 323.789 147.809 323.77 147.983C323.77 148.138 323.693 148.331 323.577 148.505C323.366 148.987 322.961 149.219 322.364 149.219C321.883 149.219 321.478 149.045 321.112 148.678L320.958 148.466C320.669 148.389 320.322 148.35 319.937 148.35C319.552 148.35 319.013 148.311 318.319 148.234H313.523C312.117 148.234 310.846 148.234 309.691 148.215C308.535 148.215 307.495 148.196 306.532 148.196H303.855C300.869 153.989 297.711 159.744 294.398 165.479C291.085 171.215 287.772 176.757 284.459 182.106C284.305 182.28 284.074 182.377 283.747 182.377C283.342 182.377 282.938 182.242 282.533 181.991C282.129 181.739 281.917 181.411 281.878 181.006C281.917 180.716 281.936 180.426 281.936 180.156V179.306C281.936 177.105 281.647 174.903 281.089 172.682C280.53 170.462 279.779 168.299 278.835 166.194C277.891 164.089 276.851 162.1 275.676 160.207C274.502 158.315 273.327 156.615 272.113 155.07C270.9 153.526 269.744 152.193 268.608 151.054C267.471 149.914 266.508 149.084 265.7 148.524L264.39 149.74C262.483 151.324 260.364 153.178 258.015 155.341C255.665 157.504 253.257 159.782 250.83 162.216C248.404 164.649 246.054 167.101 243.781 169.612C241.508 172.122 239.524 174.517 237.81 176.776C237.444 177.317 237.29 177.665 237.309 177.819C237.464 178.302 237.444 178.708 237.29 179.055C237.117 179.403 236.597 179.519 235.73 179.422C235.075 179.21 234.748 178.746 234.748 178.051C234.748 177.066 235.306 175.734 236.423 174.073C237.541 172.412 238.966 170.577 240.699 168.588C242.433 166.599 244.359 164.533 246.458 162.409C248.558 160.285 250.599 158.295 252.564 156.422C254.528 154.549 256.32 152.888 257.937 151.44C259.536 149.992 260.711 148.968 261.443 148.331C260.595 148.331 259.344 148.331 257.687 148.35C256.031 148.369 254.239 148.389 252.352 148.427C250.445 148.466 248.577 148.485 246.709 148.505C244.84 148.505 243.299 148.524 242.048 148.524H240.121C237.752 148.524 235.865 148.466 234.459 148.331C233.053 148.196 231.955 148.002 231.165 147.751C230.376 147.5 229.798 147.191 229.413 146.844C229.027 146.496 228.681 146.091 228.392 145.608C228.238 145.125 228.18 144.604 228.18 144.024C228.18 142.924 228.527 141.9 229.201 140.954C229.875 140.008 230.761 139.177 231.878 138.463C232.995 137.748 234.286 137.169 235.769 136.725C237.252 136.28 238.792 136.01 240.391 135.894C240.719 135.856 241.046 135.836 241.373 135.836H242.298C244.59 135.836 246.805 136.107 248.924 136.628C251.042 137.149 253.065 137.845 255.01 138.656C256.955 139.486 258.766 140.413 260.499 141.437C262.213 142.46 263.812 143.464 265.257 144.449C266.2 143.561 267.471 142.421 269.07 141.012C270.669 139.602 272.46 138.038 274.502 136.319C276.524 134.6 278.72 132.785 281.05 130.873C283.381 128.961 285.769 127.088 288.196 125.234C290.623 123.38 293.049 121.623 295.457 119.943C297.865 118.263 300.157 116.776 302.333 115.501C304.51 114.227 306.493 113.203 308.304 112.45C310.114 111.697 311.636 111.33 312.888 111.33C315.45 111.33 316.721 112.778 316.721 115.675C316.721 116.699 316.509 118.031 316.066 119.653C315.623 121.275 315.064 123.052 314.371 124.945C313.678 126.856 312.888 128.826 312.021 130.873C311.154 132.92 310.268 134.89 309.421 136.783C308.554 138.675 307.745 140.394 306.975 141.939C306.204 143.503 305.588 144.758 305.107 145.704ZM262.926 145.878C261.867 145.144 260.576 144.314 259.035 143.387C257.495 142.46 255.8 141.591 253.912 140.78C252.025 139.969 250.021 139.332 247.883 138.83C245.746 138.327 243.55 138.134 241.277 138.25C239.678 138.366 238.215 138.598 236.886 138.965C235.576 139.332 234.44 139.814 233.515 140.413C232.591 141.012 231.897 141.707 231.435 142.499C230.973 143.29 230.799 144.159 230.915 145.106C232.456 145.473 234.112 145.666 235.903 145.685C237.695 145.685 239.486 145.743 241.277 145.82C241.778 145.82 242.51 145.82 243.473 145.84C244.417 145.859 245.495 145.859 246.67 145.859H262.907L262.926 145.878ZM301.505 145.704C303.701 141.417 305.761 137.188 307.726 132.978C309.671 128.788 311.309 124.732 312.638 120.812C313.292 118.9 313.735 117.413 313.986 116.332C314.217 115.25 314.198 114.517 313.909 114.111C313.697 113.821 313.35 113.667 312.869 113.667C312.464 113.667 311.963 113.783 311.328 114.034C310.711 114.265 309.941 114.594 309.017 114.999C307.264 115.849 305.299 116.95 303.123 118.321C300.946 119.692 298.674 121.237 296.266 122.956C293.878 124.674 291.432 126.509 288.947 128.459C286.462 130.41 284.016 132.38 281.609 134.388C279.201 136.396 276.89 138.385 274.675 140.355C272.46 142.325 270.457 144.16 268.685 145.878C273.5 145.878 278.238 145.878 282.899 145.859C287.56 145.859 292.375 145.801 297.345 145.724H301.505V145.704ZM269.34 148.292C269.918 148.698 270.669 149.374 271.593 150.358C272.518 151.343 273.481 152.502 274.521 153.854C275.561 155.206 276.64 156.731 277.718 158.45C278.797 160.169 279.837 161.965 280.761 163.896C281.686 165.827 282.495 167.816 283.169 169.921C283.843 172.026 284.305 174.111 284.575 176.236C287.098 171.91 289.679 167.449 292.337 162.834C294.995 158.218 297.634 153.352 300.253 148.215H293.955C292.086 148.292 290.16 148.331 288.177 148.331H269.359L269.34 148.292Z" fill="#562522"/>
<path d="M314.698 167.082C314.583 167.623 314.352 167.951 313.986 168.009C313.62 168.086 313.254 168.009 312.888 167.758C312.522 167.526 312.233 167.198 312.04 166.773C311.848 166.348 311.848 165.943 312.06 165.537C312.58 164.514 313.138 163.394 313.793 162.177C314.429 160.96 315.161 159.589 315.95 158.064C316.759 156.519 317.664 154.781 318.685 152.811C319.706 150.841 320.881 148.601 322.191 146.091C322.268 145.917 322.46 145.84 322.768 145.898C323.077 145.955 323.404 146.071 323.731 146.284C324.059 146.496 324.329 146.728 324.56 147.018C324.772 147.307 324.829 147.616 324.733 147.945C324.117 149.123 323.597 150.127 323.192 150.996C322.788 151.865 322.325 152.772 321.825 153.777L320.996 155.321C321.805 154.626 322.691 153.912 323.654 153.159C324.617 152.405 325.6 151.73 326.582 151.131C327.564 150.532 328.527 150.049 329.49 149.702C330.434 149.354 331.301 149.258 332.071 149.393C333.131 149.567 334.017 149.972 334.749 150.571C335.48 151.17 335.923 152 336.058 153.062C336.135 153.545 336.078 154.221 335.923 155.09C335.769 155.978 335.577 156.866 335.403 157.774C335.23 158.682 335.095 159.531 335.018 160.265C334.941 161.018 335.018 161.501 335.23 161.714C335.596 161.829 336.155 161.752 336.925 161.501C337.772 161.173 338.793 160.671 339.987 160.014C341.201 159.358 342.453 158.585 343.801 157.716C345.13 156.828 346.459 155.862 347.807 154.8C349.136 153.738 350.35 152.657 351.447 151.556C351.602 151.305 351.871 151.112 352.276 150.976C352.68 150.841 352.911 150.957 352.988 151.285C353.104 151.768 352.873 152.405 352.333 153.236C351.794 154.066 351.043 154.955 350.118 155.92C349.194 156.886 348.115 157.871 346.883 158.894C345.65 159.918 344.417 160.806 343.127 161.617C341.856 162.428 340.604 163.085 339.371 163.587C338.138 164.108 337.06 164.34 336.116 164.301C334.98 164.301 333.959 163.876 333.073 163.046C332.168 162.196 331.686 161.154 331.628 159.918C331.59 159.107 331.648 158.257 331.821 157.33C331.975 156.422 332.148 155.553 332.322 154.742C332.495 153.931 332.591 153.255 332.649 152.676C332.707 152.096 332.611 151.749 332.341 151.614C331.936 151.401 331.301 151.498 330.453 151.923C329.587 152.348 328.624 152.985 327.526 153.815C326.428 154.646 325.253 155.65 324.02 156.789C322.768 157.929 321.574 159.107 320.399 160.304C319.225 161.52 318.146 162.718 317.144 163.896C316.143 165.093 315.334 166.136 314.698 167.063V167.082Z" fill="#562522"/>
<path d="M442.646 137.478C440.971 140.374 438.929 143.31 436.541 146.264C434.152 149.238 431.475 151.942 428.509 154.414C425.543 156.886 422.346 158.952 418.917 160.613C415.489 162.274 411.849 163.258 408.016 163.548C406.995 165.016 406.051 166.29 405.204 167.391C404.337 168.492 403.528 169.477 402.738 170.326C401.949 171.195 401.178 171.949 400.446 172.605C399.695 173.262 398.906 173.899 398.058 174.536C398.463 174.536 398.867 174.536 399.291 174.517C399.715 174.498 400.138 174.498 400.581 174.498C402.777 174.498 405.512 174.575 408.825 174.749C412.138 174.903 415.701 175.174 419.514 175.521C423.328 175.869 427.257 176.294 431.302 176.776C435.347 177.279 439.179 177.858 442.839 178.534C446.498 179.21 449.811 179.963 452.816 180.813C455.801 181.662 458.19 182.57 459.942 183.555C460.347 183.729 460.655 184.018 460.848 184.385C461.04 184.752 461.156 185.138 461.156 185.544C461.156 185.949 461.021 186.278 460.771 186.529C460.52 186.78 460.116 186.857 459.557 186.741C459.268 186.664 459.076 186.529 458.979 186.336C458.883 186.142 458.844 185.891 458.844 185.602C457.612 184.791 455.782 184.038 453.394 183.323C451.005 182.608 448.251 181.952 445.15 181.373C442.049 180.793 438.679 180.272 435.077 179.808C431.456 179.345 427.777 178.959 424.002 178.65C420.246 178.341 416.51 178.109 412.831 177.935C409.133 177.761 405.685 177.684 402.469 177.684C400.504 177.684 398.655 177.703 396.941 177.761C395.227 177.819 393.667 177.916 392.28 178.07H392.222C391.278 178.36 390.277 178.611 389.198 178.843C388.139 179.055 387.099 179.248 386.097 179.383C385.096 179.519 384.152 179.635 383.285 179.712C382.399 179.789 381.687 179.828 381.09 179.828C380.839 179.828 380.57 179.673 380.3 179.383C380.03 179.094 379.799 178.746 379.645 178.341C379.491 177.935 379.414 177.53 379.452 177.124C379.491 176.719 379.664 176.41 379.992 176.197C380.801 175.985 381.725 175.772 382.785 175.598C383.844 175.425 384.922 175.251 386.04 175.135C387.157 175 388.255 174.903 389.333 174.826C390.412 174.749 391.355 174.71 392.164 174.71C392.492 174.749 392.973 174.633 393.59 174.382C394.206 174.131 395.015 173.609 395.997 172.818C396.98 172.026 398.154 170.886 399.503 169.419C400.851 167.932 402.392 165.981 404.106 163.567C401.775 163.452 399.31 163.065 396.71 162.389C394.11 161.714 391.683 160.748 389.391 159.473C387.099 158.218 385.115 156.673 383.42 154.839C381.725 153.004 380.608 150.88 380.05 148.466C379.934 147.983 379.895 147.346 379.934 146.535C379.972 145.724 380.088 145.125 380.261 144.72C380.473 144.353 380.743 144.179 381.032 144.179C381.321 144.179 381.571 144.353 381.802 144.72C382.014 145.086 382.053 145.589 381.918 146.207C381.629 147.52 381.764 148.814 382.361 150.049C382.939 151.305 383.825 152.463 385.019 153.564C386.213 154.665 387.638 155.669 389.295 156.596C390.951 157.504 392.704 158.295 394.553 158.933C396.402 159.57 398.27 160.072 400.177 160.439C402.084 160.806 403.875 160.98 405.551 160.98H405.878C406.359 160.323 406.822 159.628 407.284 158.894C407.746 158.16 408.228 157.388 408.729 156.596C411.502 152.096 414.102 147.79 416.51 143.715C418.917 139.641 421.248 135.798 423.501 132.206C425.755 128.614 427.951 125.312 430.108 122.299C432.265 119.286 434.48 116.602 436.733 114.246C438.159 112.778 439.68 111.62 441.279 110.751C442.877 109.882 444.38 109.631 445.767 109.959C447.153 110.365 448.155 111.176 448.771 112.412C449.388 113.648 449.696 115.134 449.696 116.892C449.696 118.359 449.503 119.962 449.118 121.72C448.733 123.477 448.213 125.273 447.558 127.069C446.903 128.884 446.152 130.68 445.304 132.476C444.457 134.272 443.59 135.933 442.666 137.478H442.646ZM410.096 160.555C413.486 159.937 416.664 158.778 419.611 157.06C422.558 155.36 425.254 153.352 427.739 151.054C430.223 148.736 432.477 146.245 434.48 143.561C436.483 140.877 438.255 138.212 439.796 135.566C440.701 134.002 441.587 132.302 442.435 130.506C443.282 128.71 444.014 126.934 444.649 125.176C445.285 123.419 445.805 121.739 446.19 120.117C446.576 118.514 446.768 117.104 446.768 115.888C446.768 115.598 446.768 115.25 446.71 114.845C446.672 114.439 446.576 114.034 446.441 113.628C446.287 113.223 446.113 112.894 445.901 112.605C445.69 112.334 445.381 112.199 444.977 112.199C444.361 112.199 443.571 112.508 442.627 113.126C441.683 113.744 440.643 114.652 439.507 115.81V115.752C437.273 118.244 435.038 121.063 432.804 124.211C430.551 127.359 428.278 130.757 425.986 134.369C423.694 137.999 421.344 141.804 418.975 145.762C416.606 149.741 414.218 153.796 411.791 157.929L410.154 160.516L410.096 160.555Z" fill="#562522"/>
<path d="M455.782 161.038C455.744 160.516 455.782 159.956 455.859 159.3C455.955 158.662 456.09 158.083 456.264 157.562C455.532 158.18 454.723 158.894 453.818 159.686C452.912 160.478 452.007 161.25 451.044 162.023C450.1 162.795 449.176 163.51 448.271 164.166C447.385 164.823 446.556 165.325 445.824 165.653C445.343 165.865 444.842 165.962 444.322 165.904C443.802 165.846 443.282 165.672 442.82 165.383C442.338 165.093 441.953 164.707 441.664 164.224C441.375 163.741 441.24 163.22 441.279 162.64C441.317 161.617 441.587 160.516 442.069 159.319C442.569 158.122 443.205 156.924 443.995 155.688C444.784 154.452 445.69 153.294 446.73 152.174C447.77 151.054 448.868 150.069 450.023 149.2C451.179 148.331 452.354 147.674 453.567 147.191C454.781 146.709 455.936 146.515 457.073 146.593C458.536 146.709 459.711 147.365 460.636 148.562C460.713 148.717 460.79 148.852 460.886 149.007C460.982 149.161 461.06 149.316 461.137 149.509C461.31 149.335 461.503 149.142 461.714 148.987C461.907 148.833 462.1 148.64 462.292 148.466C462.697 148.176 463.043 148.08 463.332 148.157C463.621 148.254 463.929 148.447 464.257 148.736C464.507 148.987 464.738 149.277 464.95 149.625C465.162 149.972 465.162 150.223 464.969 150.455C463.506 151.923 462.177 153.564 461.002 155.399C459.808 157.233 459.114 159.3 458.883 161.598C458.845 162.003 458.864 162.332 458.902 162.583C458.96 162.834 458.999 163.007 459.037 163.085C459.21 163.529 459.788 163.567 460.732 163.22C461.676 162.872 462.831 162.312 464.16 161.52C465.489 160.729 466.934 159.782 468.494 158.701C470.054 157.6 471.537 156.519 472.982 155.437C474.426 154.356 475.717 153.371 476.853 152.463C477.99 151.575 478.798 150.918 479.319 150.513C479.492 150.358 479.684 150.262 479.858 150.185C480.031 150.107 480.204 150.127 480.359 150.243C480.57 150.397 480.359 150.899 479.723 151.787C479.087 152.676 478.182 153.719 477.007 154.916C475.832 156.133 474.484 157.407 472.943 158.759C471.402 160.111 469.862 161.347 468.282 162.467C466.703 163.587 465.201 164.494 463.756 165.209C462.311 165.923 461.117 166.232 460.174 166.117C459.596 166.039 459.037 165.846 458.498 165.537C457.959 165.228 457.496 164.823 457.092 164.321C456.687 163.818 456.36 163.297 456.129 162.737C455.898 162.177 455.744 161.617 455.724 161.057L455.782 161.038ZM444.438 163.297C445.208 162.795 445.978 162.254 446.749 161.675C447.519 161.096 448.405 160.4 449.426 159.551C450.447 158.701 451.641 157.697 453.009 156.499C454.376 155.302 456.052 153.873 458.016 152.193C458.594 151.652 458.883 151.092 458.883 150.552C458.883 150.107 458.729 149.76 458.382 149.489C458.055 149.219 457.631 149.084 457.13 149.084C456.283 149.084 455.262 149.393 454.029 149.992C452.797 150.59 451.583 151.459 450.389 152.599C449.773 153.255 449.137 154.008 448.463 154.819C447.808 155.65 447.192 156.519 446.633 157.465C446.075 158.392 445.593 159.377 445.189 160.381C444.784 161.385 444.534 162.37 444.418 163.316L444.438 163.297ZM449.484 172.528C448.502 172.412 447.905 172.084 447.731 171.543C447.558 171.002 447.577 170.462 447.847 169.921C448.097 169.38 448.502 168.994 449.06 168.743C449.619 168.492 450.139 168.608 450.64 169.129C451.005 169.303 451.275 169.554 451.429 169.844C451.603 170.133 451.68 170.423 451.68 170.732C451.68 171.253 451.487 171.698 451.102 172.084C450.717 172.47 450.177 172.624 449.484 172.547V172.528Z" fill="#562522"/>
<path d="M478.355 168.511C477.624 168.511 476.892 168.376 476.16 168.106C475.428 167.835 474.773 167.449 474.214 166.947C473.656 166.445 473.194 165.866 472.847 165.19C472.5 164.514 472.327 163.761 472.327 162.911C472.327 161.772 472.558 160.594 473.04 159.377C473.521 158.16 474.137 156.944 474.908 155.746C475.678 154.549 476.545 153.39 477.508 152.251C478.471 151.112 479.473 150.088 480.532 149.18C481.572 148.273 482.593 147.481 483.594 146.824C484.596 146.168 485.501 145.685 486.31 145.395C486.83 145.222 487.389 145.125 488.005 145.125C489.238 145.125 490.258 145.569 491.01 146.438C491.761 147.307 491.934 148.485 491.51 149.953C491.395 150.397 491.144 150.899 490.74 151.498C490.336 152.077 489.835 152.637 489.257 153.178C488.679 153.719 488.044 154.182 487.369 154.607C486.695 155.032 486.002 155.302 485.309 155.399C485.058 155.437 484.943 155.341 484.962 155.128C484.962 154.916 485.135 154.704 485.424 154.53C485.597 154.356 485.944 153.931 486.445 153.294C486.946 152.657 487.427 151.942 487.889 151.17C488.371 150.397 488.756 149.663 489.064 148.968C489.373 148.273 489.43 147.771 489.199 147.481C488.949 147.191 488.371 147.249 487.504 147.674C486.618 148.099 485.617 148.775 484.461 149.741C483.305 150.706 482.111 151.865 480.84 153.255C479.588 154.646 478.433 156.152 477.412 157.755C476.834 158.662 476.314 159.686 475.852 160.806C475.389 161.926 475.158 162.93 475.158 163.799C475.158 164.417 475.312 164.939 475.62 165.344C475.929 165.75 476.468 165.943 477.238 165.943C478.009 165.943 478.933 165.769 480.147 165.402C481.245 165.074 482.554 164.533 484.057 163.78C485.578 163.027 487.177 162.177 488.852 161.192C490.528 160.227 492.223 159.184 493.957 158.064C495.671 156.944 497.289 155.882 498.772 154.858C500.274 153.835 501.584 152.888 502.72 152.039C503.856 151.17 504.665 150.532 505.185 150.088C505.802 149.567 506.168 149.374 506.283 149.489C506.399 149.605 506.418 149.721 506.341 149.876C506.129 150.61 505.436 151.575 504.261 152.792C503.086 154.008 501.661 155.302 499.985 156.693C498.309 158.083 496.441 159.493 494.4 160.902C492.358 162.312 490.316 163.587 488.313 164.726C486.31 165.866 484.423 166.792 482.67 167.507C480.917 168.222 479.473 168.569 478.336 168.569L478.355 168.511Z" fill="#562522"/>
<path d="M562.408 114.014C561.965 117.49 561.58 121.198 561.234 125.118C560.887 129.039 560.713 132.998 560.713 136.995C560.713 138.675 560.733 140.336 560.791 141.939C560.848 143.542 560.964 145.144 561.137 146.709C563.66 145.144 566.453 143.348 569.554 141.359C572.636 139.37 575.795 137.304 579.011 135.18C582.228 133.055 585.406 130.931 588.545 128.807C591.685 126.683 594.554 124.694 597.174 122.84C599.793 120.986 602.027 119.344 603.915 117.896C605.802 116.448 607.093 115.347 607.825 114.574C608.364 114.034 608.807 113.512 609.135 113.01C609.462 112.508 609.616 112.103 609.578 111.774C609.616 111.485 609.751 111.311 609.982 111.272C610.213 111.234 610.425 111.272 610.618 111.33C610.656 111.33 610.752 111.407 610.926 111.543C611.099 111.697 611.272 111.89 611.446 112.141C611.619 112.392 611.793 112.701 611.908 113.068C612.024 113.435 612.081 113.841 612.043 114.285C611.927 114.864 611.523 115.579 610.81 116.409C610.098 117.239 609.385 117.915 608.653 118.475C606.9 119.904 604.878 121.469 602.567 123.149C600.255 124.829 597.79 126.586 595.171 128.401C592.532 130.217 589.797 132.09 586.946 134.002C584.096 135.933 581.226 137.825 578.337 139.718C575.448 141.61 572.597 143.445 569.766 145.26C566.935 147.076 564.238 148.794 561.677 150.455C562.004 152.579 562.466 154.723 563.044 156.905C563.622 159.087 564.315 161.192 565.124 163.22C565.933 165.248 566.838 167.14 567.859 168.878C568.88 170.616 570.016 172.122 571.249 173.416C572.482 174.691 573.83 175.695 575.274 176.39C576.719 177.085 578.241 177.375 579.859 177.279C580.918 177.124 581.669 177.143 582.131 177.298C582.593 177.472 582.516 177.935 581.939 178.708C581.534 179.036 581.033 179.345 580.456 179.615C579.878 179.886 579.223 180.001 578.491 179.963C576.526 179.847 574.523 179.074 572.52 177.626C570.517 176.178 568.63 174.227 566.858 171.755C565.086 169.284 563.487 166.387 562.062 163.085C560.636 159.763 559.519 156.19 558.71 152.348C558.556 152.425 558.441 152.502 558.325 152.56C558.21 152.637 558.113 152.714 557.998 152.772C555.879 154.086 553.626 155.495 551.237 156.982C548.849 158.469 546.48 159.956 544.111 161.424C541.761 162.911 539.469 164.359 537.254 165.788C535.039 167.217 533.036 168.55 531.264 169.766C529.473 171.002 527.951 172.084 526.719 173.069C525.486 174.034 524.658 174.826 524.253 175.405C524.099 175.579 524.08 175.734 524.138 175.849C524.215 175.965 524.311 176.043 524.446 176.101C524.581 176.158 524.716 176.216 524.85 176.294C525.004 176.371 525.062 176.467 525.062 176.564C525.101 176.776 525.004 176.97 524.793 177.143C524.581 177.298 524.311 177.414 524.022 177.472C523.733 177.53 523.425 177.53 523.098 177.472C522.77 177.414 522.52 177.279 522.327 177.066C522.154 176.892 522.019 176.661 521.942 176.41C521.865 176.158 521.826 175.888 521.826 175.579C521.826 175.058 521.923 174.536 522.135 173.996C522.346 173.455 522.539 173.03 522.77 172.74C523.213 172.161 524.061 171.35 525.313 170.326C526.565 169.303 528.105 168.144 529.916 166.87C531.726 165.595 533.749 164.205 535.964 162.718C538.198 161.231 540.509 159.724 542.897 158.18C545.286 156.635 547.693 155.109 550.139 153.583C552.566 152.058 554.878 150.629 557.073 149.277C557.247 149.2 557.42 149.123 557.574 149.007C557.728 148.891 557.882 148.794 558.075 148.678C557.747 146.149 557.497 143.464 557.304 140.626C557.131 137.787 557.035 134.948 557.035 132.09C557.035 128.131 557.189 124.385 557.536 120.831C557.863 117.278 558.383 114.304 559.076 111.929C559.519 111.485 559.943 111.311 560.386 111.407C560.829 111.504 561.214 111.697 561.542 112.006C561.869 112.315 562.12 112.682 562.312 113.107C562.486 113.532 562.524 113.841 562.428 114.072L562.408 114.014Z" fill="#562522"/>
<path d="M609.308 161.038C609.269 160.516 609.308 159.956 609.385 159.3C609.481 158.662 609.616 158.083 609.79 157.562C609.058 158.18 608.249 158.894 607.343 159.686C606.438 160.478 605.533 161.25 604.57 162.023C603.626 162.795 602.702 163.51 601.796 164.166C600.91 164.823 600.082 165.325 599.35 165.653C598.869 165.865 598.368 165.962 597.848 165.904C597.328 165.846 596.808 165.672 596.346 165.383C595.864 165.093 595.479 164.707 595.19 164.224C594.901 163.741 594.766 163.22 594.805 162.64C594.843 161.617 595.113 160.516 595.594 159.319C596.095 158.122 596.731 156.924 597.521 155.688C598.31 154.452 599.215 153.294 600.256 152.174C601.296 151.054 602.393 150.069 603.549 149.2C604.705 148.331 605.88 147.674 607.093 147.191C608.306 146.709 609.462 146.515 610.598 146.593C612.062 146.709 613.237 147.365 614.162 148.562C614.239 148.717 614.316 148.852 614.412 149.007C614.508 149.161 614.585 149.316 614.662 149.509C614.836 149.335 615.028 149.142 615.24 148.987C615.433 148.833 615.625 148.64 615.818 148.466C616.223 148.176 616.569 148.08 616.858 148.157C617.147 148.254 617.455 148.447 617.783 148.736C618.033 148.987 618.264 149.277 618.476 149.625C618.688 149.972 618.688 150.223 618.495 150.455C617.031 151.923 615.702 153.564 614.528 155.399C613.333 157.233 612.64 159.3 612.409 161.598C612.37 162.003 612.39 162.332 612.428 162.583C612.486 162.834 612.525 163.007 612.563 163.085C612.736 163.529 613.314 163.567 614.258 163.22C615.202 162.872 616.357 162.312 617.686 161.52C619.015 160.729 620.46 159.782 622.02 158.701C623.58 157.6 625.063 156.519 626.508 155.437C627.952 154.356 629.243 153.371 630.379 152.463C631.515 151.575 632.324 150.918 632.844 150.513C633.018 150.358 633.21 150.262 633.384 150.185C633.557 150.107 633.73 150.127 633.884 150.243C634.096 150.397 633.884 150.899 633.249 151.787C632.613 152.676 631.708 153.719 630.533 154.916C629.358 156.133 628.01 157.407 626.469 158.759C624.928 160.111 623.387 161.347 621.808 162.467C620.229 163.587 618.726 164.494 617.282 165.209C615.837 165.923 614.643 166.232 613.699 166.117C613.122 166.039 612.563 165.846 612.024 165.537C611.484 165.228 611.022 164.823 610.618 164.321C610.213 163.818 609.886 163.297 609.655 162.737C609.424 162.177 609.269 161.617 609.25 161.057L609.308 161.038ZM597.963 163.297C598.734 162.795 599.504 162.254 600.275 161.675C601.045 161.096 601.931 160.4 602.952 159.551C603.973 158.701 605.167 157.697 606.534 156.499C607.902 155.302 609.578 153.873 611.542 152.193C612.12 151.652 612.409 151.092 612.409 150.552C612.409 150.107 612.255 149.76 611.908 149.489C611.581 149.219 611.157 149.084 610.656 149.084C609.809 149.084 608.788 149.393 607.555 149.992C606.323 150.59 605.109 151.459 603.915 152.599C603.299 153.255 602.663 154.008 601.989 154.819C601.334 155.65 600.718 156.519 600.159 157.465C599.601 158.392 599.119 159.377 598.715 160.381C598.31 161.385 598.06 162.37 597.944 163.316L597.963 163.297ZM618.9 139.621C618.206 140.278 617.532 140.857 616.877 141.359C616.223 141.861 615.568 142.286 614.932 142.653C614.296 143.02 613.661 143.368 613.006 143.677C612.351 143.986 611.696 144.295 611.003 144.584C610.714 144.739 610.444 144.72 610.175 144.526C609.905 144.333 609.712 144.102 609.578 143.812C609.443 143.522 609.366 143.233 609.385 142.924C609.404 142.634 609.558 142.421 609.847 142.325C610.425 142.151 611.08 141.823 611.812 141.359C612.544 140.896 613.256 140.394 613.969 139.853C614.682 139.312 615.317 138.772 615.857 138.231C616.396 137.709 616.781 137.265 617.012 136.937C617.186 136.686 617.455 136.609 617.783 136.744C618.11 136.879 618.418 137.092 618.688 137.42C618.958 137.748 619.15 138.134 619.227 138.54C619.323 138.965 619.208 139.312 618.861 139.602L618.9 139.621Z" fill="#562522"/>
<path d="M234.016 201.032C235.191 201.032 236.308 201.379 237.329 202.055C238.369 202.731 239.197 203.658 239.832 204.817C240.468 205.975 240.776 207.269 240.776 208.698C240.776 210.127 240.468 211.402 239.832 212.56C239.197 213.719 238.369 214.646 237.329 215.341C236.289 216.037 235.191 216.384 234.016 216.384H227.756L228.103 215.766V222.834C228.103 223.433 227.929 223.916 227.563 224.321C227.198 224.727 226.716 224.92 226.138 224.92C225.56 224.92 225.098 224.727 224.751 224.321C224.405 223.916 224.212 223.433 224.212 222.834V203.117C224.212 202.519 224.405 202.036 224.809 201.63C225.214 201.225 225.695 201.032 226.292 201.032H234.054H234.016ZM234.016 212.503C234.44 212.503 234.863 212.329 235.268 211.962C235.672 211.595 236.019 211.131 236.289 210.552C236.558 209.973 236.693 209.355 236.693 208.717C236.693 208.08 236.558 207.443 236.289 206.883C236.019 206.323 235.672 205.859 235.268 205.492C234.863 205.126 234.44 204.971 234.016 204.971H227.679L228.084 204.353V213.063L227.718 212.522H234.016V212.503Z" fill="#562522"/>
<path d="M260.384 201.032H271.786C272.383 201.032 272.864 201.225 273.269 201.592C273.673 201.959 273.866 202.461 273.866 203.04C273.866 203.619 273.673 204.063 273.269 204.43C272.864 204.778 272.383 204.952 271.786 204.952H262.252L262.56 204.372V211.035L262.29 210.764H270.245C270.842 210.764 271.324 210.958 271.728 211.325C272.133 211.691 272.325 212.194 272.325 212.773C272.325 213.352 272.133 213.796 271.728 214.163C271.324 214.511 270.842 214.685 270.245 214.685H262.387L262.56 214.414V221.309L262.29 221H271.786C272.383 221 272.864 221.193 273.269 221.598C273.673 222.004 273.866 222.448 273.866 222.989C273.866 223.549 273.673 224.031 273.269 224.379C272.864 224.746 272.383 224.92 271.786 224.92H260.384C259.787 224.92 259.305 224.727 258.901 224.321C258.496 223.916 258.303 223.433 258.303 222.834V203.117C258.303 202.519 258.496 202.036 258.901 201.63C259.305 201.225 259.787 201.032 260.384 201.032Z" fill="#562522"/>
<path d="M300.137 206.381L292.78 223.722C292.626 224.147 292.375 224.495 292.048 224.727C291.72 224.958 291.354 225.094 290.969 225.094C290.353 225.094 289.91 224.92 289.602 224.572C289.294 224.225 289.159 223.819 289.159 223.317C289.159 223.104 289.197 222.892 289.255 222.66L297.73 202.248C297.903 201.785 298.192 201.437 298.558 201.186C298.924 200.935 299.328 200.838 299.771 200.877C300.176 200.877 300.561 200.993 300.908 201.244C301.254 201.495 301.505 201.823 301.678 202.248L310.056 222.235C310.172 222.525 310.23 222.795 310.23 223.047C310.23 223.665 310.037 224.147 309.633 224.514C309.228 224.881 308.804 225.055 308.323 225.055C307.918 225.055 307.553 224.939 307.225 224.688C306.898 224.437 306.647 224.089 306.455 223.665L299.136 206.574L300.118 206.361L300.137 206.381ZM293.839 219.551L295.707 215.631H304.895L305.549 219.551H293.839Z" fill="#562522"/>
<path d="M343.243 202.19C343.84 202.48 344.186 202.963 344.283 203.581C344.379 204.218 344.225 204.797 343.782 205.319C343.493 205.724 343.108 205.956 342.645 205.995C342.183 206.033 341.702 205.956 341.239 205.724C340.7 205.473 340.122 205.28 339.525 205.145C338.928 205.01 338.293 204.932 337.638 204.932C336.405 204.932 335.326 205.126 334.363 205.512C333.4 205.898 332.572 206.458 331.898 207.173C331.224 207.887 330.704 208.737 330.357 209.722C330.011 210.707 329.837 211.788 329.837 212.966C329.837 214.356 330.03 215.554 330.434 216.577C330.839 217.601 331.378 218.45 332.091 219.146C332.803 219.822 333.632 220.343 334.575 220.671C335.519 221 336.559 221.173 337.676 221.173C338.293 221.173 338.909 221.115 339.506 221C340.122 220.884 340.7 220.691 341.278 220.382C341.759 220.15 342.222 220.073 342.684 220.15C343.146 220.227 343.551 220.459 343.859 220.864C344.321 221.424 344.475 222.023 344.36 222.622C344.225 223.22 343.878 223.664 343.32 223.935C342.722 224.225 342.125 224.476 341.49 224.669C340.854 224.862 340.238 225.016 339.602 225.113C338.967 225.209 338.312 225.267 337.657 225.267C336.02 225.267 334.479 224.997 333.015 224.476C331.551 223.954 330.242 223.182 329.105 222.158C327.95 221.135 327.064 219.86 326.409 218.315C325.754 216.77 325.427 214.994 325.427 212.966C325.427 211.209 325.735 209.606 326.332 208.119C326.929 206.632 327.776 205.357 328.893 204.276C329.991 203.194 331.301 202.345 332.784 201.746C334.286 201.147 335.924 200.838 337.676 200.838C338.678 200.838 339.66 200.954 340.604 201.186C341.548 201.418 342.453 201.746 343.3 202.171L343.243 202.19Z" fill="#562522"/>
<path d="M363.601 201.032H375.003C375.6 201.032 376.082 201.225 376.486 201.592C376.891 201.959 377.083 202.461 377.083 203.04C377.083 203.619 376.891 204.063 376.486 204.43C376.082 204.778 375.6 204.952 375.003 204.952H365.469L365.777 204.372V211.035L365.508 210.764H373.462C374.059 210.764 374.541 210.958 374.945 211.325C375.35 211.691 375.542 212.194 375.542 212.773C375.542 213.352 375.35 213.796 374.945 214.163C374.541 214.511 374.059 214.685 373.462 214.685H365.604L365.777 214.414V221.309L365.508 221H375.003C375.6 221 376.082 221.193 376.486 221.598C376.891 222.004 377.083 222.448 377.083 222.989C377.083 223.549 376.891 224.031 376.486 224.379C376.082 224.746 375.6 224.92 375.003 224.92H363.601C363.004 224.92 362.522 224.727 362.118 224.321C361.713 223.916 361.521 223.433 361.521 222.834V203.117C361.521 202.519 361.713 202.036 362.118 201.63C362.522 201.225 363.004 201.032 363.601 201.032Z" fill="#562522"/>
<path d="M428.971 225.248C427.238 225.248 425.639 224.92 424.137 224.302C422.634 223.664 421.325 222.776 420.188 221.656C419.052 220.536 418.166 219.223 417.511 217.755C416.856 216.268 416.548 214.685 416.548 212.985C416.548 211.286 416.876 209.683 417.511 208.215C418.166 206.728 419.052 205.435 420.188 204.314C421.325 203.194 422.634 202.306 424.137 201.669C425.639 201.032 427.238 200.723 428.971 200.723C430.03 200.723 431.071 200.838 432.072 201.07C433.074 201.302 433.998 201.63 434.826 202.094C435.173 202.267 435.423 202.519 435.597 202.827C435.77 203.136 435.847 203.445 435.847 203.774C435.847 204.314 435.674 204.817 435.308 205.241C434.942 205.666 434.48 205.898 433.921 205.898C433.748 205.898 433.555 205.879 433.363 205.821C433.17 205.763 432.977 205.705 432.804 205.608C432.245 205.357 431.629 205.164 430.994 205.029C430.358 204.894 429.684 204.817 428.99 204.817C427.507 204.817 426.178 205.183 424.965 205.917C423.752 206.651 422.789 207.655 422.076 208.891C421.363 210.127 420.997 211.498 420.997 213.005C420.997 214.511 421.363 215.843 422.076 217.099C422.789 218.354 423.752 219.339 424.965 220.092C426.178 220.826 427.527 221.193 428.99 221.193C429.665 221.193 430.416 221.115 431.244 220.98C432.072 220.845 432.727 220.671 433.247 220.439L432.939 221.463V215.631L433.517 216.133H429.742C429.144 216.133 428.663 215.94 428.259 215.554C427.854 215.167 427.661 214.685 427.661 214.086C427.661 213.487 427.854 213.005 428.259 212.618C428.663 212.232 429.144 212.039 429.742 212.039H435.327C435.924 212.039 436.406 212.232 436.791 212.638C437.176 213.043 437.369 213.526 437.369 214.125V221.366C437.369 221.83 437.253 222.197 437.041 222.486C436.829 222.776 436.579 223.027 436.309 223.201C435.269 223.838 434.133 224.34 432.881 224.727C431.648 225.094 430.339 225.287 428.99 225.287L428.971 225.248Z" fill="#562522"/>
<path d="M463.775 206.381L456.417 223.722C456.263 224.147 456.013 224.495 455.685 224.727C455.358 224.958 454.992 225.094 454.607 225.094C453.991 225.094 453.548 224.92 453.239 224.572C452.931 224.225 452.796 223.819 452.796 223.317C452.796 223.104 452.835 222.892 452.893 222.66L461.367 202.248C461.541 201.785 461.83 201.437 462.196 201.186C462.562 200.935 462.966 200.838 463.409 200.877C463.813 200.877 464.199 200.993 464.545 201.244C464.892 201.495 465.142 201.823 465.316 202.248L473.694 222.235C473.81 222.525 473.867 222.795 473.867 223.047C473.867 223.665 473.675 224.147 473.27 224.514C472.866 224.881 472.442 225.055 471.961 225.055C471.556 225.055 471.19 224.939 470.863 224.688C470.535 224.437 470.285 224.089 470.092 223.665L462.773 206.574L463.756 206.361L463.775 206.381ZM457.477 219.551L459.345 215.631H468.532L469.187 219.551H457.477Z" fill="#562522"/>
<path d="M492.839 224.92C492.204 224.92 491.645 224.727 491.144 224.321C490.643 223.916 490.393 223.433 490.393 222.834V203.117C490.393 202.519 490.586 202.036 490.99 201.63C491.395 201.225 491.876 201.032 492.473 201.032H502.277C503.452 201.032 504.569 201.341 505.59 201.978C506.63 202.596 507.458 203.465 508.094 204.566C508.729 205.666 509.037 206.941 509.037 208.37C509.037 209.239 508.864 210.069 508.517 210.9C508.171 211.73 507.689 212.464 507.092 213.12C506.495 213.777 505.821 214.298 505.07 214.665L505.108 213.874C505.744 214.221 506.264 214.627 506.688 215.09C507.111 215.554 507.439 216.056 507.67 216.597C507.901 217.137 508.055 217.697 508.094 218.315C508.19 218.875 508.248 219.377 508.286 219.822C508.325 220.246 508.382 220.613 508.498 220.922C508.594 221.212 508.806 221.444 509.095 221.598C509.596 221.888 509.904 222.313 510.039 222.873C510.154 223.433 510.039 223.916 509.654 224.36C509.403 224.649 509.095 224.843 508.71 224.92C508.325 224.997 507.939 224.997 507.554 224.92C507.169 224.843 506.842 224.727 506.61 224.591C506.225 224.36 505.84 224.031 505.455 223.587C505.07 223.143 504.761 222.544 504.511 221.791C504.261 221.038 504.145 220.073 504.145 218.895C504.145 218.508 504.068 218.141 503.933 217.813C503.798 217.485 503.606 217.195 503.355 216.963C503.105 216.732 502.797 216.539 502.412 216.423C502.026 216.307 501.564 216.23 501.044 216.23H494.168L494.669 215.438V222.834C494.669 223.433 494.515 223.916 494.187 224.321C493.86 224.727 493.436 224.92 492.858 224.92H492.839ZM494.168 212.696H502.103C502.508 212.696 502.912 212.503 503.298 212.136C503.683 211.769 503.991 211.247 504.241 210.591C504.492 209.934 504.607 209.239 504.607 208.466C504.607 207.462 504.338 206.632 503.798 205.956C503.259 205.28 502.701 204.952 502.084 204.952H494.226L494.63 203.851V213.507L494.149 212.696H494.168Z" fill="#562522"/>
<path d="M537.601 201.032C539.238 201.032 540.682 201.341 541.954 201.959C543.225 202.576 544.303 203.426 545.17 204.527C546.037 205.628 546.711 206.902 547.154 208.351C547.597 209.799 547.809 211.344 547.809 212.966C547.809 215.167 547.404 217.176 546.615 218.991C545.825 220.806 544.669 222.235 543.167 223.317C541.665 224.398 539.796 224.92 537.601 224.92H529.473C528.876 224.92 528.394 224.727 527.99 224.321C527.585 223.916 527.393 223.433 527.393 222.834V203.117C527.393 202.519 527.585 202.036 527.99 201.63C528.394 201.225 528.876 201.032 529.473 201.032H537.601ZM537.254 221C538.679 221 539.854 220.633 540.759 219.899C541.665 219.165 542.339 218.18 542.743 216.963C543.167 215.747 543.379 214.414 543.379 212.985C543.379 211.923 543.263 210.9 543.013 209.934C542.762 208.969 542.397 208.119 541.915 207.385C541.414 206.651 540.779 206.053 540.008 205.628C539.238 205.203 538.313 204.971 537.254 204.971H531.302L531.649 204.662V221.386L531.437 221.019H537.254V221Z" fill="#562522"/>
<path d="M567.397 201.032H578.799C579.396 201.032 579.878 201.225 580.282 201.592C580.687 201.959 580.879 202.461 580.879 203.04C580.879 203.619 580.687 204.063 580.282 204.43C579.878 204.778 579.396 204.952 578.799 204.952H569.265L569.573 204.372V211.035L569.304 210.764H577.258C577.855 210.764 578.337 210.958 578.741 211.325C579.146 211.691 579.338 212.194 579.338 212.773C579.338 213.352 579.146 213.796 578.741 214.163C578.337 214.511 577.855 214.685 577.258 214.685H569.4L569.573 214.414V221.309L569.304 221H578.799C579.396 221 579.878 221.193 580.282 221.598C580.687 222.004 580.879 222.448 580.879 222.989C580.879 223.549 580.687 224.031 580.282 224.379C579.878 224.746 579.396 224.92 578.799 224.92H567.397C566.8 224.92 566.318 224.727 565.914 224.321C565.509 223.916 565.317 223.433 565.317 222.834V203.117C565.317 202.519 565.509 202.036 565.914 201.63C566.318 201.225 566.8 201.032 567.397 201.032Z" fill="#562522"/>
<path d="M616.473 201.032C617.012 201.032 617.455 201.205 617.802 201.572C618.149 201.939 618.303 202.383 618.303 202.943V222.834C618.303 223.433 618.11 223.916 617.706 224.321C617.301 224.727 616.82 224.92 616.223 224.92C615.934 224.92 615.625 224.862 615.317 224.765C615.009 224.669 614.778 224.514 614.624 224.34L601.257 207.308L602.143 206.767V223.008C602.143 223.549 601.97 224.012 601.623 224.379C601.276 224.746 600.814 224.92 600.236 224.92C599.658 224.92 599.254 224.746 598.907 224.379C598.561 224.012 598.387 223.568 598.387 223.008V203.117C598.387 202.519 598.58 202.036 598.984 201.63C599.389 201.225 599.87 201.032 600.467 201.032C600.795 201.032 601.122 201.089 601.45 201.225C601.777 201.36 602.047 201.534 602.201 201.785L615.163 218.373L614.585 218.779V202.943C614.585 202.403 614.759 201.939 615.105 201.572C615.452 201.205 615.895 201.032 616.473 201.032Z" fill="#562522"/>
</g>
<defs>
<clipPath id="clip0_6304_666">
<rect width="634" height="281" fill="white"/>
</clipPath>
</defs>
</svg>
